<?xml version="1.0" encoding="UTF-8" standalone="no"?>
<svg
   xmlns:osb="http://www.openswatchbook.org/uri/2009/osb"
   xmlns:dc="http://purl.org/dc/elements/1.1/"
   xmlns:cc="http://creativecommons.org/ns#"
   xmlns:rdf="http://www.w3.org/1999/02/22-rdf-syntax-ns#"
   xmlns:svg="http://www.w3.org/2000/svg"
   xmlns="http://www.w3.org/2000/svg"
   xmlns:xlink="http://www.w3.org/1999/xlink"
   xmlns:sodipodi="http://sodipodi.sourceforge.net/DTD/sodipodi-0.dtd"
   xmlns:inkscape="http://www.inkscape.org/namespaces/inkscape"
   enable-background="new 0 0 24 24"
   height="24"
   viewBox="0 0 24 24"
   width="24"
   version="1.1"
   id="svg907"
   sodipodi:docname="utm.svg"
   inkscape:version="1.0.2 (e86c870879, 2021-01-15, custom)"
   inkscape:export-filename="W:\My Documents\GitHub\qgis-latlontools-plugin\images\utm.png"
   inkscape:export-xdpi="96"
   inkscape:export-ydpi="96">
  <metadata
     id="metadata913">
    <rdf:RDF>
      <cc:Work
         rdf:about="">
        <dc:format>image/svg+xml</dc:format>
        <dc:type
           rdf:resource="http://purl.org/dc/dcmitype/StillImage" />
        <dc:title></dc:title>
      </cc:Work>
    </rdf:RDF>
  </metadata>
  <defs
     id="defs911">
    <linearGradient
       inkscape:collect="always"
       id="linearGradient5655">
      <stop
         style="stop-color:#0000e0;stop-opacity:1;"
         offset="0"
         id="stop5651" />
      <stop
         style="stop-color:#0000e0;stop-opacity:0;"
         offset="1"
         id="stop5653" />
    </linearGradient>
    <linearGradient
       id="linearGradient5647"
       osb:paint="solid">
      <stop
         style="stop-color:#000000;stop-opacity:1;"
         offset="0"
         id="stop5645" />
    </linearGradient>
    <linearGradient
       id="b-2"
       gradientUnits="userSpaceOnUse"
       x1="0.98339999"
       x2="23.6108"
       y1="6.6645999"
       y2="8.6442003">
      <stop
         offset="0"
         stop-color="#f5f5f5"
         id="stop874-6" />
      <stop
         offset=".2503"
         stop-color="#e4e4e4"
         id="stop876-2" />
      <stop
         offset=".7217"
         stop-color="#c9c9c9"
         id="stop878-5" />
      <stop
         offset="1"
         stop-color="#bfbfbf"
         id="stop880-3" />
    </linearGradient>
    <linearGradient
       inkscape:collect="always"
       xlink:href="#linearGradient5655"
       id="linearGradient5657"
       x1="0.68440333"
       y1="7.7082172"
       x2="23.119649"
       y2="7.7082172"
       gradientUnits="userSpaceOnUse" />
  </defs>
  <sodipodi:namedview
     pagecolor="#ffffff"
     bordercolor="#666666"
     borderopacity="1"
     objecttolerance="10"
     gridtolerance="10"
     guidetolerance="10"
     inkscape:pageopacity="0"
     inkscape:pageshadow="2"
     inkscape:window-width="1920"
     inkscape:window-height="1003"
     id="namedview909"
     showgrid="false"
     inkscape:zoom="33.75"
     inkscape:cx="11.125926"
     inkscape:cy="11.90412"
     inkscape:window-x="-8"
     inkscape:window-y="6"
     inkscape:window-maximized="1"
     inkscape:current-layer="svg907"
     inkscape:document-rotation="0" />
  <linearGradient
     id="a"
     gradientUnits="userSpaceOnUse"
     x1="3.0864"
     x2="20.9115"
     y1="14.0254"
     y2="10.8823"
     gradientTransform="translate(-0.05925926,-0.5037037)">
    <stop
       offset="0"
       stop-color="#c8e6fa"
       id="stop865" />
    <stop
       offset=".2857"
       stop-color="#b7ddf6"
       id="stop867" />
    <stop
       offset=".8515"
       stop-color="#8ac7eb"
       id="stop869" />
    <stop
       offset="1"
       stop-color="#7dc1e8"
       id="stop871" />
  </linearGradient>
  <linearGradient
     id="b"
     gradientUnits="userSpaceOnUse"
     x1=".9834"
     x2="23.6108"
     y1="6.6646"
     y2="8.6442">
    <stop
       offset="0"
       stop-color="#f5f5f5"
       id="stop874" />
    <stop
       offset=".2503"
       stop-color="#e4e4e4"
       id="stop876" />
    <stop
       offset=".7217"
       stop-color="#c9c9c9"
       id="stop878" />
    <stop
       offset="1"
       stop-color="#bfbfbf"
       id="stop880" />
  </linearGradient>
  <path
     d="m 20.989741,11.953296 c 0,4.987 -4.054,9.039 -9.049,9.039 -4.9980003,0 -9.0490003,-4.052 -9.0490003,-9.039 0,-4.9949997 4.052,-9.0459997 9.0490003,-9.0459997 4.995,0 9.049,4.051 9.049,9.0459997 z"
     id="path883"
     style="fill:url(#a);stroke:#4774b4;stroke-width:0.75;stroke-linecap:round;stroke-linejoin:round"
     inkscape:connector-curvature="0" />
  <path
     d="m 11.940741,3.3832963 c 4.762,4.763 4.762,12.3699997 0,17.1349997"
     id="path885"
     inkscape:connector-curvature="0"
     style="fill:none;stroke:#4774b4;stroke-width:0.75;stroke-linecap:round;stroke-linejoin:round" />
  <path
     d="m 11.940741,3.3832963 c -4.7630003,4.763 -4.7630003,12.3699997 0,17.1349997"
     id="path887"
     inkscape:connector-curvature="0"
     style="fill:none;stroke:#4774b4;stroke-width:0.75;stroke-linecap:round;stroke-linejoin:round" />
  <path
     d="m 3.3677407,11.953296 c 1.905,0 15.2400003,0 17.1460003,0"
     id="path889"
     inkscape:connector-curvature="0"
     style="fill:none;stroke:#4774b4;stroke-width:0.75;stroke-linecap:round;stroke-linejoin:round" />
  <path
     d="m 18.607741,6.2412963 c -2.675,1.918 -10.3090003,2.067 -13.3350003,0"
     id="path891"
     inkscape:connector-curvature="0"
     style="fill:none;stroke:#4774b4;stroke-width:0.75;stroke-linecap:round;stroke-linejoin:round" />
  <path
     d="m 18.607741,17.659296 c -3.447,-1.867 -9.7080003,-1.995 -13.3350003,0"
     id="path893"
     inkscape:connector-curvature="0"
     style="fill:none;stroke:#4774b4;stroke-width:0.75;stroke-linecap:round;stroke-linejoin:round" />
  <g
     aria-label="UTM"
     id="text5048"
     style="font-style:normal;font-weight:normal;font-size:12px;line-height:1.25;font-family:sans-serif;letter-spacing:0px;word-spacing:0px;fill:#000000;fill-opacity:1;stroke:#000000;stroke-width:0.377953;stroke-linejoin:round;stroke-miterlimit:4;stroke-dasharray:none;stroke-opacity:1;paint-order:normal">
    <path
       d="M 0.87338234,8.3696657 V 4.6977791 q 0,-0.4687515 0.20833396,-0.7031273 0.2135424,-0.2343757 0.5572935,-0.2343757 0.3593761,0 0.5677101,0.2343757 0.2135423,0.2343758 0.2135423,0.7031273 v 3.7552202 q 0,0.640627 0.1406255,1.07292 0.1458338,0.4270847 0.5104183,0.6666687 0.3645844,0.234376 1.0208365,0.234376 0.9062529,0 1.2812541,-0.4791683 Q 5.7483977,9.4634191 5.7483977,8.4842494 V 4.6977791 q 0,-0.4739599 0.208334,-0.7031273 0.208334,-0.2343757 0.5572935,-0.2343757 0.3489594,0 0.5625017,0.2343757 0.2187507,0.2291674 0.2187507,0.7031273 v 3.6718866 q 0,0.8958361 -0.1770839,1.4947964 -0.1718755,0.5989599 -0.656252,1.0520869 -0.416668,0.385418 -0.9687531,0.562501 -0.5520851,0.177084 -1.2916707,0.177084 -0.8802112,0 -1.5156298,-0.1875 Q 2.0504694,11.275925 1.6494265,10.88009 1.2483835,10.479047 1.0608829,9.8592537 0.87338234,9.2342517 0.87338234,8.3696657 Z"
       style="font-style:normal;font-variant:normal;font-weight:normal;font-stretch:normal;font-size:10.6667px;font-family:'Arial Rounded MT Bold';-inkscape-font-specification:'Arial Rounded MT Bold, ';fill:#000000;fill-opacity:1;stroke:#000000;stroke-width:0.377953;stroke-linejoin:round;stroke-miterlimit:4;stroke-dasharray:none;stroke-opacity:1;paint-order:normal"
       id="path858" />
    <path
       d="m 13.925507,5.1665305 h -1.687505 v 5.5468925 q 0,0.479168 -0.213542,0.713544 -0.213543,0.229167 -0.552085,0.229167 -0.343751,0 -0.562502,-0.234375 -0.213542,-0.234376 -0.213542,-0.708336 V 5.1665305 H 9.0088252 q -0.3958346,0 -0.5885435,-0.1718755 -0.192709,-0.1770839 -0.192709,-0.4635431 0,-0.296876 0.1979173,-0.4687515 0.2031256,-0.1718756 0.5833352,-0.1718756 h 4.9166818 q 0.401043,0 0.593752,0.1770839 0.197918,0.1770839 0.197918,0.4635432 0,0.2864592 -0.197918,0.4635431 -0.197917,0.1718755 -0.593752,0.1718755 z"
       style="font-style:normal;font-variant:normal;font-weight:normal;font-stretch:normal;font-size:10.6667px;font-family:'Arial Rounded MT Bold';-inkscape-font-specification:'Arial Rounded MT Bold, ';fill:#000000;fill-opacity:1;stroke:#000000;stroke-width:0.377953;stroke-linejoin:round;stroke-miterlimit:4;stroke-dasharray:none;stroke-opacity:1;paint-order:normal"
       id="path860" />
    <path
       d="M 18.211979,10.37488 16.988017,5.5102816 v 5.2708504 q 0,0.437501 -0.197917,0.656252 -0.192709,0.21875 -0.515627,0.21875 -0.312501,0 -0.510418,-0.213542 -0.197917,-0.218751 -0.197917,-0.66146 V 4.7394459 q 0,-0.5000016 0.260417,-0.6718772 0.260418,-0.1770839 0.703128,-0.1770839 h 0.479168 q 0.432293,0 0.625002,0.078125 0.197917,0.078125 0.291667,0.2812509 0.09375,0.2031256 0.213543,0.6614604 L 19.248441,9.093626 20.35782,4.9113211 q 0.119792,-0.4583348 0.213542,-0.6614604 0.09375,-0.2031257 0.286459,-0.2812509 0.197917,-0.078125 0.630211,-0.078125 H 21.9672 q 0.442709,0 0.703127,0.1770839 0.260417,0.1718756 0.260417,0.6718772 v 6.0416861 q 0,0.437501 -0.197917,0.656252 -0.192709,0.21875 -0.520835,0.21875 -0.307293,0 -0.50521,-0.21875 -0.197917,-0.218751 -0.197917,-0.656252 V 5.5102816 L 20.284903,10.37488 q -0.119792,0.47396 -0.197918,0.697919 -0.07292,0.218751 -0.276042,0.401043 -0.203126,0.182292 -0.562502,0.182292 -0.270834,0 -0.458335,-0.119792 -0.1875,-0.114583 -0.291667,-0.296876 -0.104167,-0.182292 -0.166667,-0.401043 -0.05729,-0.223959 -0.119793,-0.463543 z"
       style="font-style:normal;font-variant:normal;font-weight:normal;font-stretch:normal;font-size:10.6667px;font-family:'Arial Rounded MT Bold';-inkscape-font-specification:'Arial Rounded MT Bold, ';fill:#000000;fill-opacity:1;stroke:#000000;stroke-width:0.377953;stroke-linejoin:round;stroke-miterlimit:4;stroke-dasharray:none;stroke-opacity:1;paint-order:normal"
       id="path862" />
  </g>
</svg>
